<?xml version="1.0" encoding="UTF-8"?>
<!-- Generator: Adobe Illustrator 22.0.0, SVG Export Plug-In . SVG Version: 6.00 Build 0)  -->
<svg version="1.1" id="Layer_1" xmlns="http://www.w3.org/2000/svg" xmlns:xlink="http://www.w3.org/1999/xlink" x="0px" y="0px" viewBox="0 0 262.3 93.5" style="enable-background:new 0 0 262.3 93.5;" xml:space="preserve">
<style type="text/css">
	.st0{opacity:0.5;fill:#0099cc;enable-background:new    ;}
	.st1{opacity:0.5;fill:#659AD2;enable-background:new    ;}
	.st2{fill:#659AD2;}
	.st3{fill:#4A8ECC;}
	.st4{opacity:0.5;fill:#4A8ECC;enable-background:new    ;}
	.st5{fill:#0099cc;}
	.st6{fill:#034EA2;}
	.st7{fill:#FFDD00;}
	.st8{fill:#727D84;}
</style>
<g>
	<g>
		<rect x="8.5" y="59" class="st0" width="93.5" height="9.1"/>
		<rect x="8.5" class="st1" width="93.5" height="9.1"/>
		<rect x="17" class="st2" width="76.5" height="9.1"/>
		<rect x="92.9" y="8.5" class="st3" width="9.1" height="51"/>
		<rect x="101.3" y="8.5" class="st4" width="9.3" height="51"/>
		<rect x="8.5" y="8.5" class="st2" width="9.3" height="51"/>
		<rect y="8.5" class="st1" width="8.9" height="51"/>
		<g>
			<polygon class="st5" points="51,68 93.5,68 93.5,58.5 17,58.5 17,68 34,68 34,76.5 42.5,76.5 42.5,85 51,85    "/>
			<rect x="51" y="85" class="st5" width="8.5" height="8.5"/>
		</g>
		<g>
			<rect x="17" y="8.5" class="st6" width="76.5" height="51"/>
			<g>
				<polygon class="st7" points="53.4,20.1 55.3,18.7 57.1,20.1 56.4,17.9 58.3,16.5 56,16.5 55.3,14.3 54.6,16.5 52.3,16.5       54.1,17.9     "/>
				<polygon class="st7" points="45,22.3 46.9,21 48.7,22.3 48,20.2 49.9,18.8 47.6,18.8 46.9,16.6 46.2,18.8 43.8,18.8 45.7,20.2           "/>
				<polygon class="st7" points="40.7,22.7 40,25 37.7,25 39.6,26.3 38.9,28.5 40.7,27.2 42.6,28.5 41.9,26.3 43.8,25 41.4,25           "/>
				<polygon class="st7" points="38.5,35.5 40.3,36.9 39.6,34.7 41.5,33.4 39.2,33.4 38.5,31.1 37.8,33.4 35.4,33.4 37.3,34.7       36.6,36.9     "/>
				<polygon class="st7" points="41.4,41.8 40.7,39.5 40,41.8 37.7,41.8 39.6,43.1 38.9,45.3 40.7,44 42.6,45.3 41.9,43.1       43.8,41.8     "/>
				<polygon class="st7" points="47.6,47.9 46.9,45.7 46.2,47.9 43.9,47.9 45.7,49.3 45,51.5 46.9,50.1 48.8,51.5 48,49.3       49.9,47.9     "/>
				<polygon class="st7" points="56,50.2 55.3,47.9 54.6,50.2 52.3,50.2 54.1,51.5 53.4,53.7 55.3,52.4 57.1,53.7 56.4,51.5       58.3,50.2     "/>
				<polygon class="st7" points="64.4,47.9 63.7,45.7 63,47.9 60.6,47.9 62.5,49.3 61.8,51.5 63.7,50.1 65.5,51.5 64.8,49.3       66.7,47.9     "/>
				<polygon class="st7" points="70.6,41.8 69.8,39.5 69.1,41.8 66.8,41.8 68.7,43.1 68,45.3 69.8,44 71.7,45.3 71,43.1 72.9,41.8           "/>
				<polygon class="st7" points="75.1,33.3 72.8,33.3 72.1,31.1 71.4,33.3 69,33.3 70.9,34.7 70.2,36.9 72.1,35.5 73.9,36.9       73.2,34.7     "/>
				<polygon class="st7" points="68,28.5 69.8,27.1 71.7,28.5 71,26.3 72.9,24.9 70.6,24.9 69.8,22.7 69.1,24.9 66.8,24.9       68.7,26.3     "/>
				<polygon class="st7" points="63.7,16.6 63,18.8 60.7,18.8 62.6,20.2 61.9,22.3 63.7,21 65.6,22.3 64.9,20.2 66.7,18.8       64.4,18.8     "/>
			</g>
		</g>
	</g>
	<g>
		<path class="st8" d="M128.2,36.3V9.2H142v2h-11.6v10.1h10.7v2h-10.7v11H142v2H128.2z"/>
		<path class="st8" d="M155.8,36.7c-4.8,0-8.6-3-8.6-8V9.2h2.3v19.5c0,3.7,2.8,6,6.3,6s6.3-2.2,6.3-6V9.2h2.3v19.5    C164.4,33.7,160.6,36.7,155.8,36.7z"/>
		<path class="st8" d="M185.8,36.3l-4.6-9.1c-1.1-2.1-2.5-3.3-5-3.3H173v12.3h-2.2v-26c1.8-0.9,4.4-1.4,6.9-1.4    c6.1,0,9.2,3.1,9.2,7.4c0,4.5-2.8,6.5-6.7,7.1v0.1c1.3,0.6,2.3,1.9,3.2,3.5l4.8,9.4C188.2,36.3,185.8,36.3,185.8,36.3z     M177.7,10.7c-1.8,0-3.6,0.3-4.7,0.8v10.7h3.9c4.8,0,7.8-1.5,7.8-5.8C184.7,13,182.4,10.7,177.7,10.7z"/>
		<path class="st8" d="M191.1,25.2v-2.1h10v2.1H191.1z"/>
		<path class="st5" d="M206.4,36.3V9.2h5.3v22.7h8.4v4.4C220.1,36.3,206.4,36.3,206.4,36.3z"/>
		<path class="st5" d="M240.4,26.6l-13,1.8c0.4,3,2.6,4.4,5.6,4.4c2,0,4.2-0.5,5.6-1.3l1.5,3.8c-1.7,0.9-4.5,1.5-7.4,1.5    c-6.7,0-10.2-4.3-10.2-10.6c0-6.2,3.5-10.5,9.4-10.5c5.6,0,8.7,3.7,8.7,9.2C240.5,25.4,240.5,26,240.4,26.6z M231.7,19.4    c-2.7,0-4.5,1.9-4.6,5.7l8.5-1.2C235.6,20.9,234.1,19.4,231.7,19.4z"/>
		<path class="st5" d="M256.4,36.3l-4.2-7h-0.1l-4.1,7h-5.9l6.9-10.4l-6.3-9.7h5.8l3.7,6.4h0.1l3.7-6.4h5.7l-6.3,9.7l6.9,10.4    C262.3,36.3,256.4,36.3,256.4,36.3z"/>
	</g>
</g>
</svg>